Coordinates
version=1
nRows=54
nColumns=12
inDegrees=yes

Units are S.I. units (second, meters, Newtons, ...)
Angles are in degrees

endheader
time	SC_y	SC_z	SC_x	AC_y	AC_z	AC_x	GH_y	GH_z	GH_yy	EL_x	PS_y
       0.0              -20.63          28.74           51.5           57.0         -14.18          12.72          114.2           42.0         -64.83          72.21          110.4
   0.04255              -20.62          28.73           51.5           57.0         -14.18          12.72          114.2           42.0         -64.83          72.22          110.4
    0.0851              -20.62          28.73           51.5           57.0         -14.17          12.71          114.2           42.0         -64.82          72.22          110.4
    0.1277              -20.62          28.72          51.49           57.0         -14.17          12.71          114.2           42.0         -64.82          72.23          110.4
    0.1702              -20.62          28.72          51.49          57.01         -14.17           12.7          114.2           42.0         -64.82          72.23          110.4
    0.2128              -20.62          28.71          51.49          57.01         -14.17          12.69          114.2           42.0         -64.82          72.24          110.4
    0.2553              -20.62           28.7          51.48          57.01         -14.16          12.69          114.2           42.0         -64.81          72.24          110.4
    0.2979              -20.62           28.7          51.48          57.01         -14.16          12.68          114.2           42.0         -64.81          72.25          110.4
    0.3404              -20.62          28.69          51.47          57.01         -14.16          12.67          114.2           42.0          -64.8          72.25          110.4
     0.383              -20.62          28.68          51.47          57.01         -14.15          12.67          114.2           42.0          -64.8          72.26          110.4
    0.4255              -20.61          28.67          51.46          57.02         -14.15          12.66          114.2          42.01          -64.8          72.26          110.4
    0.4681              -20.61          28.66          51.46          57.02         -14.15          12.65          114.2          42.01         -64.79          72.27          110.3
    0.5106              -20.61          28.65          51.45          57.02         -14.14          12.64          114.3          42.01         -64.79          72.28          110.3
    0.5532              -20.61          28.64          51.44          57.02         -14.14          12.63          114.3          42.01         -64.78          72.29          110.3
    0.5957              -20.61          28.63          51.44          57.03         -14.13          12.62          114.3          42.01         -64.78           72.3          110.3
    0.6383               -20.6          28.62          51.43          57.03         -14.13           12.6          114.3          42.02         -64.77          72.31          110.3
    0.6808               -20.6          28.61          51.42          57.03         -14.12          12.59          114.3          42.02         -64.76          72.32          110.3
    0.7234               -20.6          28.59          51.41          57.04         -14.11          12.57          114.3          42.02         -64.76          72.33          110.3
    0.7659               -20.6          28.57           51.4          57.04         -14.11          12.56          114.4          42.02         -64.75          72.34          110.3
    0.8085              -20.59          28.56          51.39          57.04          -14.1          12.54          114.4          42.03         -64.74          72.35          110.3
     0.851              -20.59          28.54          51.37          57.05         -14.09          12.52          114.4          42.03         -64.73          72.37          110.3
    0.8936              -20.59          28.52          51.36          57.05         -14.08           12.5          114.4          42.03         -64.72          72.38          110.3
    0.9361              -20.58          28.49          51.34          57.06         -14.07          12.48          114.5          42.04         -64.71           72.4          110.3
    0.9787              -20.58          28.47          51.33          57.07         -14.06          12.45          114.5          42.04         -64.69          72.42          110.3
     1.021              -20.57          28.44          51.31          57.07         -14.05          12.42          114.5          42.04         -64.68          72.45          110.2
     1.064              -20.56           28.4          51.29          57.08         -14.03          12.39          114.6          42.05         -64.66          72.47          110.2
     1.106              -20.56          28.37          51.26          57.09         -14.02          12.35          114.6          42.06         -64.64           72.5          110.2
     1.149              -20.55          28.33          51.24           57.1          -14.0          12.31          114.7          42.06         -64.62          72.53          110.2
     1.191              -20.54          28.28          51.21          57.11         -13.98          12.27          114.7          42.07          -64.6          72.57          110.2
     1.234              -20.53          28.23          51.17          57.12         -13.95          12.21          114.8          42.08         -64.57          72.61          110.2
     1.277              -20.52          28.17          51.13          57.14         -13.93          12.15          114.9          42.09         -64.54          72.65          110.1
     1.319              -20.51           28.1          51.09          57.15          -13.9          12.09          114.9           42.1         -64.51          72.71          110.1
     1.362              -20.49          28.02          51.04          57.17         -13.86          12.01          115.0          42.11         -64.47          72.77          110.1
     1.404              -20.48          27.93          50.98           57.2         -13.82          11.92          115.2          42.13         -64.42          72.84          110.0
     1.447              -20.46          27.82          50.91          57.22         -13.77          11.81          115.3          42.15         -64.37          72.92          110.0
     1.489              -20.43          27.69          50.82          57.25         -13.72          11.68          115.5          42.17          -64.3          73.02          109.9
     1.532              -20.41          27.54          50.73          57.29         -13.65          11.53          115.7          42.19         -64.23          73.14          109.8
     1.574              -20.37          27.36          50.61          57.33         -13.57          11.35          115.9          42.22         -64.14          73.27          109.8
     1.617              -20.33          27.14          50.47          57.38         -13.48          11.13          116.2          42.26         -64.03          73.44          109.7
     1.659              -20.28          26.87          50.29          57.45         -13.36          10.86          116.5           42.3         -63.89          73.65          109.6
     1.702              -20.22          26.54          50.08          57.53         -13.21          10.54          116.9          42.35         -63.73           73.9          109.4
     1.745              -20.15          26.12          49.81          57.63         -13.03          10.12          117.4          42.42         -63.52          74.22          109.2
     1.787              -20.05           25.6          49.47          57.75          -12.8          9.607          118.1          42.51         -63.26          74.62          109.0
      1.83              -19.93          24.94          49.04          57.91         -12.51          8.949          118.9          42.61         -62.93          75.13          108.7
     1.872              -19.77          24.09          48.49          58.12         -12.14          8.108          120.0          42.75          -62.5          75.78          108.3
     1.915              -19.57           23.0          47.78          58.38         -11.66          7.027          121.3          42.93         -61.96          76.62          107.8
     1.957              -19.32          21.61          46.88          58.71         -11.05          5.648          123.1          43.16         -61.26          77.68          107.2
       2.0               -19.0          19.86          45.75          59.13         -10.28          3.913          125.3          43.44         -60.39          79.03          106.5
     2.042              -18.61          17.73          44.37          59.64          -9.35          1.798          127.9          43.79         -59.32          80.66          105.5
     2.085              -18.16          15.27          42.77          60.23         -8.266        -0.6524          131.0          44.19         -58.09          82.56          104.4
     2.128              -17.67          12.59          41.03          60.87         -7.093         -3.306          134.4          44.62         -56.75          84.61          103.2
      2.17              -17.18          9.919           39.3          61.51          -5.92          -5.96          137.7          45.06         -55.41          86.66          102.1
     2.213              -16.73          7.451           37.7          62.11         -4.836          -8.41          140.8          45.46         -54.17          88.55          101.0
     2.255              -16.34          5.321          36.32          62.62         -3.901         -10.52          143.5          45.81         -53.11          90.19          100.0
